<?xml version="1.0" encoding="utf-8"?>
<!-- Generator: Adobe Illustrator 15.0.0, SVG Export Plug-In . SVG Version: 6.00 Build 0)  -->
<!DOCTYPE svg PUBLIC "-//W3C//DTD SVG 1.1//EN" "http://www.w3.org/Graphics/SVG/1.1/DTD/svg11.dtd">
<svg version="1.1" id="Layer_1" xmlns="http://www.w3.org/2000/svg" xmlns:xlink="http://www.w3.org/1999/xlink" x="0px" y="0px"
	 width="180px" height="180px" viewBox="0 0 180 180" enable-background="new 0 0 180 180" xml:space="preserve">
<g>
	<path fill="#F15C25" d="M153.123,102.296c-0.806-1.186-1.801-2.643-2.938-4.301c-1.138-1.647-2.44-3.489-3.91-5.485
		c-0.284-0.392-0.592-0.817-0.876-1.221c3.127-5.136,4.928-11.065,4.928-17.404c0-10.716-5.118-20.3-13.197-26.757
		c2.44-1.001,4.81-2.435,6.776-4.455c1.256-1.333,2.346-2.902,3.033-4.62c0.734-1.706,1.019-3.548,0.995-5.284
		c-0.119-3.507-1.588-6.534-3.626-8.779c0.19,3.045-0.07,5.87-1.019,8.098c-0.924,2.239-2.44,3.744-4.289,4.798
		c-3.696,2.121-8.695,2.612-13.79,2.482c-1.161-0.047-2.274-0.101-3.412-0.154c-3.033-0.13-6.065-0.509-9.099-0.509
		c-1.919,0-3.814,0.178-5.663,0.438v-0.006c-1.279-1.73-2.535-3.412-3.696-4.958c-2.18-2.95-4.123-5.533-5.663-7.612l-0.048-0.065
		c0.854-0.841,3.104-3.507,2.631-8.311c-0.048-0.634-0.616-1.108-1.232-1.037c-0.64,0.059-1.09,0.622-1.019,1.25
		c0.308,3.4-1.02,5.391-1.754,6.243c-1.753-2.322-2.748-3.655-2.748-3.655c-1.232-1.659-3.483-2.085-5.023-0.954
		c-1.541,1.143-1.777,3.412-0.521,5.077c0.023,0.042,0.071,0.095,0.095,0.136c0,0,0.616,0.776,1.729,2.126
		c-1.777,0.024-3.933-0.409-6.421-1.712l-0.355-0.172c-8.554-4.478-15.97-8.346-27.818-8.346c-13.577,0-28.244,8.565-30.092,24.927
		c0,0.012,0,0.018,0,0.03c-0.284,3.513,0,7.245,1.114,10.651c1.09,3.441,2.985,6.581,5.378,9.182
		c4.17,4.531,9.502,7.582,15.094,9.768v46.531c1.114,52.649,71.393,42.034,71.393,42.034v-0.012
		c8.222-0.723,16.112-3.068,20.946-7.286c2.677-2.311,4.336-5.663,5.07-9.075c1.279-5.924-1.397-10.094-5.474-13.577
		c-5.26-4.479-10.378-6.314-9.525-11.456c0.877-5.154,10.308-5.758,10.308-5.758c-5.379-3.898-20.923-3.146-25.732,3.743
		c-3.602,5.154-2.962,12.097,0.331,17.511c0.641,1.043,1.375,2.026,2.181,2.927c1.824,1.979,3.98,3.436,5.379,5.805
		c1.848,3.151,2.18,6.658,0.924,9.419c-0.854,1.836-2.346,3.281-4.266,3.957c-0.995,0.355-2.085,0.45-3.104,0.284
		c-7.653-1.196-17.107-14.157-15.662-27.782c0.095-0.947,0.284-1.86,0.545-2.772c1.445-4.774,5.094-8.648,8.814-11.8
		c2.938-2.47,5.876-4.229,9.525-5.391c1.208-0.391,2.417-0.734,3.648-1.024c9.193-2.187,17.061-7.541,22.155-14.744
		c0.142,0.189,0.308,0.396,0.474,0.58c1.587,1.884,3.057,3.607,4.359,5.124c1.351,1.487,2.512,2.808,3.483,3.886
		c1.943,2.115,3.104,3.3,3.104,3.3S154.71,104.718,153.123,102.296z M112.7,41.856c6.587,0,12.108,9.993,13.767,23.583
		c-0.521-0.723-1.043-1.439-1.563-2.156c-3.91-5.296-7.844-10.586-11.492-15.55c-1.304-1.759-2.56-3.454-3.791-5.112
		C110.615,42.129,111.633,41.856,112.7,41.856z M96.327,27.622c3.175,4.377,6.776,10.029,6.16,10.502
		c-0.568,0.456-4.81-3.957-8.198-7.991v-0.006l-0.829-1.084C94.692,28.623,95.664,28.072,96.327,27.622z M90.071,22.202
		c0.568-0.438,1.232-1.072,4.667,3.323c0.071,0.089,0.143,0.184,0.189,0.272c-0.64,0.438-1.635,0.995-2.985,1.315l-1.303-1.665
		C89.005,22.954,89.621,22.569,90.071,22.202z M76.992,134.681c0,7.203,3.412,12.795,8.293,16.906
		c-1.872-0.889-3.672-1.896-5.426-3.069c-16.586-11.207-16.255-30.281-16.255-30.281V71.552H46.71
		c-5.426-2.488-10.521-5.799-14.265-10.354c-2.156-2.63-3.744-5.681-4.597-8.921c-0.829-3.246-0.924-6.575-0.474-9.94v-0.006
		c1.753-15.728,15.662-22.889,27.817-22.889c11.279,0,18.126,3.56,26.775,8.08l0.332,0.178c3.696,1.931,6.824,2.192,9.241,1.807
		c1.753,2.18,4.123,5.071,6.919,8.495c0.687,0.83,1.397,1.706,2.132,2.601c-14.856,4.715-25.542,17.813-25.542,33.285
		c0,18.138,14.714,33.066,33.576,34.974C92.868,112.07,76.992,121.056,76.992,134.681z M112.7,105.916
		c-7.891,0-14.288-14.342-14.288-32.03c0-11.681,2.772-21.864,6.967-27.462l0,0c1.208,1.504,2.487,3.033,3.767,4.626
		c3.934,4.756,8.128,9.827,12.321,14.916c1.825,2.209,3.673,4.419,5.498,6.611c0,0.438,0.023,0.865,0.023,1.309
		C126.988,91.574,120.59,105.916,112.7,105.916z"/>
	<path fill="#F15C25" d="M56.093,41.395c0.924,0.379,1.564,1.273,1.564,2.316c0,1.386-1.137,2.5-2.512,2.5
		c-1.374,0-2.488-1.114-2.488-2.5c0-1.042,0.64-1.937,1.54-2.316V23.44c-5.758,17.552-11.302,22.735-11.302,22.735
		c1.706,2.115,4.004,7.47,4.621,11.516c0.118,0.741,0.142,1.576,0.142,2.435h14.975c0-0.859,0.047-1.694,0.142-2.435
		c0.64-4.046,2.938-9.401,4.644-11.516c0,0-5.544-5.183-11.326-22.735V41.395z"/>
	<path fill="#F15C25" d="M47.61,62.039c-0.024,0.717-0.095,1.422-0.142,2.121h15.377c-0.071-0.699-0.118-1.404-0.166-2.121H47.61z"
		/>
	<path fill="#F15C25" d="M47.255,66.066c-0.285,2.062-0.569,3.578-0.569,3.578h16.918c0,0-0.284-1.517-0.545-3.578H47.255z"/>
</g>
</svg>
