<?xml version="1.0" encoding="utf-8"?>
<!-- Generator: Adobe Illustrator 15.0.0, SVG Export Plug-In . SVG Version: 6.00 Build 0)  -->
<!DOCTYPE svg PUBLIC "-//W3C//DTD SVG 1.1//EN" "http://www.w3.org/Graphics/SVG/1.1/DTD/svg11.dtd">
<svg version="1.1" id="Layer_1" xmlns="http://www.w3.org/2000/svg" xmlns:xlink="http://www.w3.org/1999/xlink" x="0px" y="0px"
	 width="180px" height="180px" viewBox="0 0 180 180" enable-background="new 0 0 180 180" xml:space="preserve">
<g>
	<radialGradient id="SVGID_1_" cx="60.6479" cy="173.5962" r="190.8038" gradientUnits="userSpaceOnUse">
		<stop  offset="0.0969" style="stop-color:#FFD87A"/>
		<stop  offset="0.1426" style="stop-color:#FCCE78"/>
		<stop  offset="0.2263" style="stop-color:#F5B471"/>
		<stop  offset="0.3378" style="stop-color:#EB8D65"/>
		<stop  offset="0.449" style="stop-color:#E36058"/>
		<stop  offset="0.6786" style="stop-color:#CD3694"/>
		<stop  offset="1" style="stop-color:#6668B0"/>
	</radialGradient>
	<path fill="url(#SVGID_1_)" d="M162.457,132.872c0,16.32-13.239,29.573-29.573,29.573H48.044c-16.32,0-29.573-13.253-29.573-29.573
		V48.033c0-16.334,13.253-29.588,29.573-29.588h84.839c16.334,0,29.573,13.253,29.573,29.588V132.872z"/>
	<g>
		<path fill="#FFFFFF" d="M111.302,36.145H69.624c-18.47,0-33.453,14.983-33.453,33.468v41.679
			c0,18.471,14.983,33.453,33.453,33.453h41.678c18.485,0,33.453-14.982,33.453-33.453V69.613
			C144.755,51.128,129.788,36.145,111.302,36.145z M134.336,107.281c0,14.938-12.105,27.044-27.03,27.044H73.635
			c-14.939,0-27.045-12.105-27.045-27.044V73.609c0-14.925,12.105-27.03,27.045-27.03h33.671c14.925,0,27.03,12.105,27.03,27.03
			V107.281z"/>
		<path fill="#FFFFFF" d="M91.917,62.042c-15.782,0-28.6,12.789-28.6,28.6c0,15.797,12.818,28.6,28.6,28.6
			c15.797,0,28.6-12.803,28.6-28.6C120.516,74.83,107.713,62.042,91.917,62.042z M91.917,107.833
			c-9.504,0-17.206-7.702-17.206-17.191c0-9.519,7.702-17.221,17.206-17.221s17.221,7.702,17.221,17.221
			C109.137,100.13,101.42,107.833,91.917,107.833z"/>
		<path fill="#FFFFFF" d="M125.821,61.591c0,4.011-3.256,7.28-7.281,7.28c-4.011,0-7.266-3.27-7.266-7.28
			c0-4.026,3.255-7.281,7.266-7.281C122.565,54.311,125.821,57.565,125.821,61.591z"/>
	</g>
</g>
</svg>
