<?xml version="1.0" encoding="utf-8"?>
<!-- Generator: Adobe Illustrator 15.0.0, SVG Export Plug-In . SVG Version: 6.00 Build 0)  -->
<!DOCTYPE svg PUBLIC "-//W3C//DTD SVG 1.1//EN" "http://www.w3.org/Graphics/SVG/1.1/DTD/svg11.dtd">
<svg version="1.1" id="Layer_1" xmlns="http://www.w3.org/2000/svg" xmlns:xlink="http://www.w3.org/1999/xlink" x="0px" y="0px"
	 width="180px" height="180px" viewBox="0 0 180 180" enable-background="new 0 0 180 180" xml:space="preserve">
<g>
	<path fill="#067CB6" d="M162.234,132.868c0,16.351-13.24,29.576-29.576,29.576H47.81c-16.336,0-29.576-13.226-29.576-29.576V48.035
		c0-16.351,13.24-29.591,29.576-29.591h84.848c16.336,0,29.576,13.24,29.576,29.591V132.868z"/>
	<g>
		<path fill="#FFFFFF" d="M39.802,72.96h21.626v69.529H39.802V72.96z M50.629,38.398c6.904,0,12.514,5.625,12.514,12.543
			s-5.61,12.513-12.514,12.513c-6.933,0-12.528-5.595-12.528-12.513S43.697,38.398,50.629,38.398"/>
		<path fill="#FFFFFF" d="M74.974,72.96h20.74v9.52h0.29c2.878-5.479,9.941-11.235,20.449-11.235
			c21.888,0,25.914,14.389,25.914,33.108v38.136h-21.598v-33.805c0-8.066-0.131-18.444-11.22-18.444
			c-11.249,0-12.979,8.793-12.979,17.862v34.387H74.974V72.96z"/>
	</g>
</g>
</svg>
