<?xml version="1.0" encoding="utf-8"?>
<!-- Generator: Adobe Illustrator 15.0.0, SVG Export Plug-In . SVG Version: 6.00 Build 0)  -->
<!DOCTYPE svg PUBLIC "-//W3C//DTD SVG 1.1//EN" "http://www.w3.org/Graphics/SVG/1.1/DTD/svg11.dtd">
<svg version="1.1" id="Layer_1" xmlns="http://www.w3.org/2000/svg" xmlns:xlink="http://www.w3.org/1999/xlink" x="0px" y="0px"
	 width="450px" height="150px" viewBox="0 0 450 150" enable-background="new 0 0 450 150" xml:space="preserve">
<g>
	<rect x="30.265" y="24.168" width="100" height="100"/>
	<g>
		<path fill="#F37021" d="M143.764,83.224V24.168h8.107v59.056H143.764z"/>
		<path fill="#F37021" d="M160.959,83.224V58.55c0-4.66,1.686-8.622,5.056-11.885c3.377-3.263,7.5-4.895,12.38-4.895
			c3.899,0,7.489,1.261,10.779,3.785c4.331,3.261,6.495,7.811,6.495,13.655v24.014h-7.44V59.374c0-2.849-0.921-5.32-2.756-7.4
			c-1.839-2.083-4.197-3.127-7.078-3.127c-2.74,0-5.068,0.985-6.988,2.958c-1.892,1.976-2.838,4.282-2.838,6.909v24.511H160.959z"/>
		<path fill="#F37021" d="M201.758,76.318h20.272l0.617,0.163c1.401-0.163,2.401-0.383,3-0.655c1.177-0.634,1.766-1.619,1.766-2.962
			c0-2.137-2.121-3.907-6.371-5.306c-3.372-0.961-5.96-1.714-7.774-2.264c-3.97-1.37-6.808-2.81-8.511-4.318
			c-2.003-1.782-2.999-4.195-2.999-7.237c0-3.977,1.532-6.895,4.605-8.757c2.358-1.399,5.426-2.097,9.209-2.097h17.444v7.071h-18.88
			c-3.101,0-4.652,1.208-4.652,3.62c0.165,1.615,1.632,2.962,4.402,4.031c0.881,0.327,3.48,1.027,7.816,2.097
			c4.771,1.372,8.226,3.139,10.36,5.305c1.977,2.027,2.967,4.594,2.967,7.692c0,4.139-1.609,7.087-4.816,8.841
			c-2.085,1.125-4.868,1.684-8.35,1.684h-2.509h-17.598V76.318z"/>
		<path fill="#F37021" d="M241.072,24.168h7.446v33.52h3.783c1.862-0.166,3.274-0.674,4.239-1.521
			c0.872-0.795,2.077-2.646,3.613-5.552l4.606-7.815h8.434c-2.14,3.591-4.305,7.181-6.5,10.774
			c-2.162,3.645-4.018,5.577-5.555,5.799c3.38,0.523,5.914,1.865,7.611,4.032c1.399,1.861,2.098,4.14,2.098,6.824v12.994h-7.403
			V72.535c0-2.551-0.511-4.501-1.521-5.839c-1.013-1.291-2.754-1.936-5.222-1.936h-8.185v18.464h-7.446V24.168z"/>
		<path fill="#F37021" d="M286.599,63.936l20.153-11.144c-1.184-1.176-2.143-1.959-2.882-2.345c-1.727-0.958-3.903-1.439-6.54-1.439
			c-4.057,0-7.287,1.521-9.701,4.566c-2.193,2.744-3.294,6.113-3.294,10.117c0,3.482,1.152,6.511,3.452,9.091
			c2.527,2.793,5.814,4.194,9.875,4.194c4.088,0,7.197-1.125,9.338-3.375c1.914-1.944,3.286-5.061,4.108-9.336l7.445,1.028
			c0,4.36-1.769,8.419-5.304,12.176c-4.225,4.497-9.598,6.739-16.122,6.739c-5.484,0-10.282-1.983-14.397-5.96
			c-4.11-3.977-6.168-8.745-6.168-14.313c0-7.016,2.317-12.583,6.95-16.696c3.978-3.535,8.583-5.304,13.817-5.304
			c4.583,0,8.477,1.043,11.689,3.127c3.145,2.138,5.85,5.37,8.092,9.703l-27.307,15.136L286.599,63.936z"/>
		<path fill="#F37021" d="M325.874,70.603V32.518h7.325v10.283h14.515v7.073h-14.515V72c0,1.125,0.448,2.083,1.358,2.878
			c0.848,0.851,2.161,1.275,3.944,1.275h9.212v7.071h-9.373c-4.338,0-7.555-1.257-9.666-3.783
			C326.809,77.25,325.874,74.3,325.874,70.603z"/>
		<path fill="#F37021" d="M352.484,63.156c0-5.482,1.715-10.17,5.141-14.061c3.752-4.197,8.736-6.294,14.925-6.294h7.41v7.073h-6.42
			c-2.967,0-5.706,0.975-8.221,2.919c-3.269,2.549-4.898,6.061-4.898,10.53c0,3.153,1.097,5.962,3.284,8.432
			c2.585,2.93,5.984,4.398,10.203,4.398h6.052v7.071h-7.41c-6.305,0-11.36-2.301-15.172-6.906
			C354.115,72.367,352.484,67.983,352.484,63.156z"/>
		<path fill="#F37021" d="M385.792,24.168h7.24v21.88c1.617-1.344,3.333-2.359,5.141-3.042c1.781-0.605,3.855-0.908,6.215-0.908
			c4.547,0,8.222,1.304,11.016,3.907c3.152,2.856,4.728,6.911,4.728,12.176v25.043h-7.601V59.54c0-3.372-0.813-5.95-2.432-7.735
			c-1.668-1.755-3.905-2.632-6.704-2.632c-3.638,0-6.373,1.207-8.182,3.621c-1.455,1.921-2.181,4.346-2.181,7.282v23.149h-7.24
			V24.168z"/>
	</g>
	<g>
		<path d="M161.875,106.055h-13.714v13.962h13.714v-4.905h-7.178v-3.756h11.441v7.595c0,2.021-0.322,3.395-0.964,4.123
			c-0.643,0.728-1.88,1.095-3.709,1.095h-13.018c-1.832,0-3.067-0.367-3.712-1.095c-0.642-0.729-0.97-2.103-0.97-4.123v-11.623
			c0-2.001,0.328-3.371,0.97-4.11c0.645-0.738,1.88-1.107,3.712-1.107h13.018c1.806,0,3.036,0.364,3.69,1.085
			c0.656,0.725,0.984,2.034,0.984,3.924v0.503l-4.263,0.895V106.055z"/>
		<path d="M184.816,124.168V102.11h16.14c1.495,0,2.588,0.342,3.253,1.014c0.676,0.676,1.016,1.762,1.016,3.266v5.175
			c0,1.489-0.34,2.575-1.016,3.257c-0.665,0.68-1.758,1.022-3.253,1.022h-2.462l8.707,8.325H200.9l-7.601-8.325h-4.16v8.325H184.816
			z M199.008,105.931h-9.869v6.135h9.869c0.765,0,1.286-0.133,1.566-0.386c0.272-0.257,0.419-0.713,0.419-1.368v-2.65
			c0-0.639-0.146-1.088-0.419-1.347C200.294,106.059,199.773,105.931,199.008,105.931z"/>
		<path d="M218.617,124.168l10.677-22.059h4.231l10.818,22.059h-4.933l-2.26-4.819h-11.963l-2.194,4.819H218.617z M227.062,115.36
			h8.263l-4.065-8.971L227.062,115.36z"/>
		<path d="M259.807,124.168V102.11h16.14c1.498,0,2.582,0.342,3.256,1.014c0.671,0.676,1.013,1.762,1.013,3.266v4.928
			c0,1.485-0.342,2.569-1.013,3.24c-0.674,0.679-1.758,1.015-3.256,1.015h-11.823v8.597H259.807z M274,105.931h-9.877v5.842H274
			c0.765,0,1.279-0.127,1.558-0.387c0.285-0.256,0.424-0.714,0.424-1.365v-2.359c0-0.639-0.139-1.088-0.424-1.347
			C275.28,106.059,274.765,105.931,274,105.931z"/>
		<path d="M296.373,124.168V102.11h4.395v8.558h13.71v-8.558h4.426v22.059h-4.426v-9.495h-13.71v9.495H296.373z"/>
		<path d="M337.939,124.168V102.11h4.394v22.059H337.939z"/>
		<path d="M377.202,106.055h-11.834v13.962h11.834v-4.738l4.39,1.063v2.608c0,2.021-0.323,3.395-0.971,4.123
			c-0.653,0.728-1.886,1.095-3.706,1.095h-11.264c-1.835,0-3.067-0.367-3.712-1.095c-0.642-0.729-0.969-2.103-0.969-4.123v-11.623
			c0-2.001,0.327-3.371,0.969-4.11c0.645-0.738,1.877-1.107,3.712-1.107h11.264c1.82,0,3.053,0.369,3.706,1.107
			c0.647,0.739,0.971,2.109,0.971,4.11v2.088l-4.39,0.812V106.055z"/>
		<path d="M415.753,105.973h-12.356v4.736h11.764c1.851,0,3.093,0.369,3.74,1.104c0.648,0.737,0.97,2.107,0.97,4.11v3.026
			c0,2.005-0.321,3.375-0.97,4.113c-0.647,0.735-1.89,1.104-3.74,1.104h-11.652c-1.85,0-3.093-0.369-3.749-1.104
			c-0.647-0.738-0.97-2.108-0.97-4.113v-0.603l3.877-0.939v2.608h13.337v-5.029h-11.77c-1.83,0-3.067-0.368-3.71-1.106
			c-0.643-0.737-0.962-2.108-0.962-4.11v-2.443c0-2.001,0.319-3.371,0.962-4.11c0.643-0.738,1.88-1.107,3.71-1.107h10.715
			c1.771,0,2.995,0.356,3.667,1.066c0.673,0.706,1.007,1.967,1.007,3.779v0.454l-3.869,1.066V105.973z"/>
	</g>
	<g>
		<g>
			<path fill="#F58220" d="M118.054,82.076c-0.485-0.714-1.079-1.591-1.758-2.588c-0.687-0.99-1.475-2.1-2.354-3.298
				c-0.168-0.237-0.359-0.493-0.534-0.733c-0.243,0.396-0.493,0.795-0.758,1.172c0.091,0.112,0.188,0.236,0.285,0.349
				c0.951,1.132,1.835,2.169,2.631,3.081c0.807,0.896,1.505,1.688,2.087,2.336c1.175,1.276,1.87,1.986,1.87,1.986
				S119.005,83.531,118.054,82.076z"/>
			<path fill="#F58220" d="M101.078,58.611c-2.348-3.188-4.705-6.366-6.907-9.354c-0.782-1.055-1.541-2.076-2.28-3.073
				c-0.005,0-0.005,0-0.005,0c-0.345-0.471-0.679-0.921-1.019-1.377c-0.169-0.236-0.352-0.481-0.528-0.714v-0.004
				c-0.776-1.04-1.521-2.053-2.22-2.984c-1.313-1.773-2.478-3.325-3.412-4.575l-0.031-0.039c0.521-0.509,1.866-2.109,1.589-5.002
				c-0.029-0.38-0.376-0.664-0.745-0.621c-0.382,0.036-0.654,0.375-0.619,0.749c0.194,2.047-0.601,3.244-1.055,3.756
				c-1.042-1.397-1.643-2.196-1.643-2.196c-0.739-1.001-2.103-1.253-3.024-0.575c-0.922,0.687-1.067,2.051-0.314,3.054
				c0.015,0.023,0.041,0.054,0.06,0.082c0,0,0.376,0.466,1.042,1.276c-1.073,0.016-2.363-0.242-3.867-1.028l-0.208-0.104
				c-5.153-2.689-9.609-5.018-16.739-5.018c-8.16,0-16.988,5.151-18.092,14.993c0,0.004,0,0.01,0,0.016l0,0
				c-0.182,2.115,0,4.358,0.666,6.406c0.656,2.068,1.79,3.957,3.234,5.525c2.503,2.725,5.723,4.556,9.082,5.875v-0.097h0.017
				c-3.267-1.495-6.334-3.489-8.577-6.226c-1.298-1.582-2.264-3.416-2.767-5.365c-0.508-1.954-0.565-3.955-0.285-5.979V46.01
				c1.055-9.46,9.41-13.767,16.722-13.767c6.79,0,10.899,2.142,16.103,4.862l0.206,0.104c2.228,1.165,4.098,1.319,5.553,1.087
				c1.063,1.311,2.481,3.049,4.167,5.11c0.406,0.499,0.836,1.027,1.278,1.564c0.904,1.098,1.866,2.277,2.873,3.504v-0.004
				c0.739,0.904,1.498,1.827,2.28,2.782c2.365,2.863,4.881,5.914,7.403,8.974c1.104,1.333,2.212,2.657,3.304,3.975
				c-0.025-1.479-0.126-2.914-0.291-4.291C101.713,59.473,101.398,59.042,101.078,58.611z M80.469,35.853
				c-0.974-1.5-0.611-1.729-0.339-1.95c0.347-0.264,0.747-0.644,2.809,1.998c0.041,0.053,0.085,0.109,0.12,0.163
				c-0.382,0.264-0.989,0.598-1.8,0.792L80.469,35.853z M82.663,38.672l0.008-0.003l-0.504-0.648
				c0.747-0.252,1.329-0.586,1.723-0.857c1.923,2.631,4.086,6.032,3.718,6.317C87.255,43.753,84.713,41.101,82.663,38.672z"/>
			<path fill="#F58220" d="M59.706,34.648v10.798c0.545,0.227,0.933,0.764,0.933,1.392c0,0.833-0.679,1.504-1.503,1.504
				c-0.832,0-1.504-0.67-1.504-1.504c0-0.627,0.381-1.165,0.927-1.392V34.648c-3.468,10.554-6.803,13.674-6.803,13.674
				c1.026,1.271,2.408,4.493,2.79,6.926c0.06,0.446,0.083,0.946,0.083,1.464h9.006c0-0.518,0.023-1.018,0.085-1.464
				c0.38-2.434,1.762-5.655,2.788-6.926C66.507,48.322,63.173,45.203,59.706,34.648z"/>
			<path fill="#F58220" d="M54.602,57.864c-0.026,0.426-0.057,0.857-0.094,1.274h9.253c-0.041-0.417-0.074-0.849-0.098-1.274H54.602
				z"/>
			<path fill="#F58220" d="M54.042,62.438H64.22c0,0-0.174-0.912-0.332-2.153h-9.515C54.217,61.526,54.042,62.438,54.042,62.438z"/>
		</g>
		<path fill="#FFFFFF" d="M86.108,96.457c0.873-2.876,3.054-5.21,5.304-7.105c1.764-1.481,3.529-2.541,5.723-3.239
			c0.722-0.235,1.45-0.443,2.196-0.617c5.533-1.315,10.257-4.534,13.319-8.866c0.266-0.377,0.516-0.776,0.758-1.172
			c1.884-3.09,2.97-6.658,2.97-10.469c0-6.445-3.079-12.21-7.94-16.091c1.467-0.602,2.885-1.468,4.074-2.68
			c0.756-0.801,1.418-1.745,1.83-2.78c0.428-1.026,0.611-2.134,0.588-3.178c-0.074-2.107-0.947-3.931-2.183-5.281
			c0.116,1.832-0.029,3.531-0.6,4.87c-0.564,1.346-1.478,2.254-2.583,2.891c-2.227,1.272-5.238,1.567-8.301,1.49
			c-0.691-0.027-1.37-0.062-2.055-0.093c-1.826-0.082-3.638-0.307-5.464-0.307c-1.164,0-2.297,0.105-3.406,0.264
			c0.176,0.232,0.359,0.478,0.528,0.714c0.339,0.456,0.673,0.906,1.019,1.377c0,0,0,0,0.005,0c0.594-0.297,1.213-0.461,1.854-0.461
			c3.96,0,7.284,6.014,8.283,14.186c0.165,1.377,0.266,2.813,0.291,4.291c0.007,0.264,0.02,0.521,0.02,0.788
			c0,10.638-3.845,19.265-8.593,19.265c-4.753,0-8.602-8.627-8.602-19.265c0-7.023,1.678-13.15,4.188-16.514
			c-1.007-1.227-1.969-2.406-2.873-3.504c-8.93,2.833-15.355,10.712-15.355,20.018c0,10.909,8.839,19.89,20.188,21.034
			c-9.47,1.933-19.025,7.338-19.025,15.533c0.004,4.329,2.049,7.693,4.982,10.165c-1.113-0.535-2.206-1.137-3.255-1.847
			c-9.972-6.736-9.778-18.206-9.778-18.206V63.583H54.06h-0.017v0.097v27.987c0.671,31.666,42.936,25.279,42.936,25.279l0.006-0.007
			c4.941-0.436,9.689-1.848,12.599-4.381c1.599-1.394,2.594-3.411,3.042-5.468c0.765-3.555-0.842-6.07-3.298-8.163
			c-3.152-2.689-6.237-3.796-5.723-6.889c0.53-3.096,6.205-3.464,6.205-3.464c-3.232-2.34-12.595-1.888-15.486,2.254
			c-2.158,3.104-1.781,7.276,0.208,10.53c0.38,0.629,0.824,1.218,1.313,1.758c1.092,1.196,2.396,2.065,3.226,3.492
			c1.116,1.898,1.317,4.013,0.557,5.67c-0.508,1.105-1.407,1.974-2.563,2.378c-0.593,0.214-1.249,0.271-1.868,0.171
			c-4.594-0.718-10.289-8.517-9.421-16.708C85.837,97.554,85.945,97,86.108,96.457z"/>
	</g>
	
		<line fill="none" stroke="#000000" stroke-width="3.0404" stroke-miterlimit="10" x1="143.764" y1="92.562" x2="420.13" y2="92.562"/>
</g>
</svg>
