<?xml version="1.0" encoding="utf-8"?>
<!-- Generator: Adobe Illustrator 15.0.0, SVG Export Plug-In . SVG Version: 6.00 Build 0)  -->
<!DOCTYPE svg PUBLIC "-//W3C//DTD SVG 1.1//EN" "http://www.w3.org/Graphics/SVG/1.1/DTD/svg11.dtd">
<svg version="1.1" id="Layer_1" xmlns="http://www.w3.org/2000/svg" xmlns:xlink="http://www.w3.org/1999/xlink" x="0px" y="0px"
	 width="252px" height="108px" viewBox="0 0 252 108" enable-background="new 0 0 252 108" xml:space="preserve">
<g>
	<path fill-rule="evenodd" clip-rule="evenodd" fill="#229CD8" d="M39.305,40.539h14.393c7.725,0,10.635,3.91,10.186,9.666
		c-0.742,9.486-6.479,14.734-14.086,14.734h-3.842c-1.043,0-1.744,0.688-2.027,2.563l-1.648,10.875
		c-0.107,0.707-0.479,1.121-1.037,1.172h-9.023c-0.85,0-1.152-0.648-0.93-2.057l5.512-34.891
		C37.021,41.205,37.785,40.539,39.305,40.539z"/>
	<path fill-rule="evenodd" clip-rule="evenodd" fill="#233E81" d="M101.777,39.895c4.855,0,9.336,2.633,8.723,9.197
		c-0.729,7.783-4.922,12.117-11.52,12.135h-5.756c-0.828,0-1.229,0.676-1.445,2.064l-1.111,7.082
		c-0.166,1.07-0.715,1.598-1.527,1.598h-5.359c-0.855,0-1.154-0.545-0.963-1.768l4.43-28.395c0.219-1.396,0.752-1.914,1.699-1.914
		H101.777L101.777,39.895z M93.047,55.094h4.365c2.73-0.104,4.545-1.992,4.727-5.404c0.113-2.105-1.309-3.613-3.574-3.602
		l-4.109,0.018L93.047,55.094L93.047,55.094z M125.068,69.795c0.49-0.445,0.988-0.678,0.916-0.127l-0.174,1.314
		c-0.09,0.686,0.184,1.053,0.822,1.053h4.761c0.801,0,1.193-0.324,1.391-1.564l2.934-18.416c0.148-0.926-0.076-1.379-0.779-1.379
		h-5.233c-0.473,0-0.701,0.266-0.824,0.986l-0.195,1.133c-0.102,0.592-0.371,0.693-0.623,0.1c-0.889-2.104-3.154-3.047-6.332-2.982
		c-7.344,0.152-12.295,5.727-12.826,12.873c-0.408,5.529,3.553,9.871,8.773,9.871C121.467,72.654,123.16,71.525,125.068,69.795
		L125.068,69.795z M121.084,66.965c-3.162,0-5.365-2.521-4.904-5.611c0.459-3.092,3.412-5.613,6.574-5.613s5.365,2.521,4.904,5.613
		C127.199,64.443,124.246,66.965,121.084,66.965L121.084,66.965z M145.042,50.617h-4.811c-0.996,0-1.402,0.729-1.084,1.656
		l5.994,17.555l-5.906,8.35c-0.494,0.697-0.113,1.336,0.582,1.336h5.428c0.811,0,1.205-0.207,1.613-0.793l18.436-26.447
		c0.568-0.814,0.301-1.668-0.631-1.668l-5.131-0.006c-0.881,0-1.234,0.348-1.74,1.082l-7.689,11.156l-3.422-11.176
		C146.47,50.973,145.968,50.617,145.042,50.617z"/>
	<path fill-rule="evenodd" clip-rule="evenodd" fill="#229CD8" d="M184.483,39.895c4.855,0,9.334,2.633,8.721,9.197
		c-0.727,7.783-4.92,12.117-11.518,12.135h-5.756c-0.83,0-1.229,0.676-1.445,2.064l-1.111,7.082
		c-0.168,1.07-0.715,1.598-1.527,1.598h-5.361c-0.854,0-1.152-0.545-0.961-1.768l4.43-28.395c0.219-1.396,0.752-1.914,1.699-1.914
		H184.483L184.483,39.895z M175.753,55.094h4.365c2.729-0.104,4.545-1.992,4.727-5.404c0.113-2.105-1.311-3.613-3.574-3.602
		l-4.109,0.018L175.753,55.094L175.753,55.094z M207.774,69.795c0.488-0.445,0.988-0.678,0.916-0.127l-0.174,1.314
		c-0.09,0.686,0.184,1.053,0.822,1.053h4.762c0.801,0,1.193-0.324,1.391-1.564l2.934-18.416c0.146-0.926-0.076-1.379-0.779-1.379
		h-5.234c-0.473,0-0.701,0.266-0.826,0.986l-0.193,1.133c-0.102,0.592-0.371,0.693-0.623,0.1c-0.891-2.104-3.154-3.047-6.332-2.982
		c-7.344,0.152-12.297,5.727-12.826,12.873c-0.408,5.529,3.553,9.871,8.773,9.871C204.171,72.654,205.866,71.525,207.774,69.795
		L207.774,69.795z M203.79,66.965c-3.162,0-5.365-2.521-4.906-5.611c0.461-3.092,3.414-5.613,6.576-5.613
		c3.16,0,5.365,2.521,4.904,5.613C209.905,64.443,206.952,66.965,203.79,66.965L203.79,66.965z M225.753,72.068h-5.496
		c-0.436,0-0.74-0.342-0.674-0.76l4.834-30.59c0.064-0.418,0.477-0.76,0.914-0.76h5.494c0.438,0,0.74,0.342,0.674,0.76l-4.832,30.59
		C226.601,71.727,226.188,72.068,225.753,72.068z"/>
	<path fill-rule="evenodd" clip-rule="evenodd" fill="#233E81" d="M30.309,28.531h14.406c4.057,0,8.869,0.133,12.088,2.971
		c2.15,1.896,3.277,4.918,3.018,8.162c-0.883,11-7.463,17.16-16.285,17.16H36.43c-1.209,0-2.012,0.801-2.352,2.971l-1.982,12.613
		c-0.129,0.818-0.484,1.301-1.131,1.357H22.09c-0.984,0-1.334-0.752-1.076-2.385l6.391-40.457
		C27.66,29.303,28.547,28.531,30.309,28.531z"/>
	<path fill-rule="evenodd" clip-rule="evenodd" fill="#27326E" d="M34.285,58.525l2.516-15.924c0.221-1.396,0.984-2.063,2.504-2.063
		h14.393c2.381,0,4.307,0.371,5.814,1.057c-1.445,9.789-7.777,15.229-16.068,15.229h-7.105
		C35.402,56.824,34.703,57.303,34.285,58.525z"/>
</g>
</svg>
