<?xml version="1.0" encoding="utf-8"?>
<!-- Generator: Adobe Illustrator 15.0.0, SVG Export Plug-In . SVG Version: 6.00 Build 0)  -->
<!DOCTYPE svg PUBLIC "-//W3C//DTD SVG 1.1//EN" "http://www.w3.org/Graphics/SVG/1.1/DTD/svg11.dtd">
<svg version="1.1" id="Layer_1" xmlns="http://www.w3.org/2000/svg" xmlns:xlink="http://www.w3.org/1999/xlink" x="0px" y="0px"
	 width="180px" height="180px" viewBox="0 0 180 180" enable-background="new 0 0 180 180" xml:space="preserve">
<g>
	<path fill="#F15C25" d="M104.859,90.286v2.337c0,4.406-3.569,7.979-7.979,7.979H83.26c-4.41,0-7.979-3.573-7.979-7.979v-2.205
		L6.918,72.801v77.129c0,4.41,3.584,7.979,7.979,7.979h10.971l0.763,3.335h12.233l0.374-3.335h102.319l0.764,3.335h12.232
		l0.374-3.335h10.55c4.41,0,7.979-3.568,7.979-7.979V71.632L104.859,90.286z"/>
	<path fill="#F15C25" d="M165.477,39.566h-43.991V25.218c0-4.406-3.568-7.979-7.979-7.979H66.96c-4.395,0-7.979,3.572-7.979,7.979
		v14.348H14.897c-4.395,0-7.979,3.572-7.979,7.979v17.013l83.245,21.458l83.292-22.65V47.545
		C173.456,43.139,169.887,39.566,165.477,39.566z M79.598,31.588h21.271c4.409,0,7.979,3.572,7.979,7.979H71.62
		C71.62,35.16,75.188,31.588,79.598,31.588z"/>
</g>
</svg>
