<?xml version="1.0" encoding="utf-8"?>
<!-- Generator: Adobe Illustrator 15.0.0, SVG Export Plug-In . SVG Version: 6.00 Build 0)  -->
<!DOCTYPE svg PUBLIC "-//W3C//DTD SVG 1.1//EN" "http://www.w3.org/Graphics/SVG/1.1/DTD/svg11.dtd">
<svg version="1.1" id="Layer_1" xmlns="http://www.w3.org/2000/svg" xmlns:xlink="http://www.w3.org/1999/xlink" x="0px" y="0px"
	 width="180px" height="180px" viewBox="0 0 180 180" enable-background="new 0 0 180 180" xml:space="preserve">
<g>
	<path fill="#F15C25" d="M51.306,154.627c0,3.579-2.897,6.477-6.477,6.477H27.296c-3.58,0-6.477-2.897-6.477-6.477V70.015
		c0-3.577,2.897-6.477,6.477-6.477h17.533c3.58,0,6.477,2.9,6.477,6.477V154.627z"/>
	<path fill="#F15C25" d="M158.462,77.75c-1.113-6.65-3.302-14.212-11.55-14.212c-6.413,0-29.967,0-29.967,0
		s7.097-15.094,6.173-26.302c-0.911-11.208-7.312-20.36-18.063-20.129c-4.997,0.107-8.59,2.891-10.095,7.603
		c-1.024,3.191-0.493,6.616-1.721,9.778c-0.923,2.359-2.264,4.576-3.719,6.644c-3.327,4.756-7.185,9.165-11.271,13.276
		c-5.958,5.977-12.839,11.79-20.467,15.945v81.471c15.471,0,30.929,0,46.399,0c7.299,0,14.598,0,21.896,0
		c4.731,0,8.033,0.114,12.119-2.542c3.099-1.999,5.591-4.883,7.337-7.982C156.767,121.389,162.295,100.776,158.462,77.75z"/>
</g>
</svg>
